HIERARCHY
ROOT Hips
{
	OFFSET 0.000000 71.427986 0.000000
	CHANNELS 6 Xposition Yposition Zposition Xrotation Yrotation Zrotation
	JOINT Pelvis
	{
		OFFSET 0.000000 0.000000 0.000000
		CHANNELS 3 Xrotation Yrotation Zrotation
		JOINT LeftUpLeg
		{
			OFFSET 6.797100 -2.508499 -1.318700
			CHANNELS 3 Xrotation Yrotation Zrotation
			JOINT LeftLeg
			{
				OFFSET 0.069008 -29.241863 0.690200
				CHANNELS 3 Xrotation Yrotation Zrotation
				JOINT LeftFoot
				{
					OFFSET -0.069008 -29.568123 -0.266800
					CHANNELS 3 Xrotation Yrotation Zrotation
					JOINT LeftToeBase
					{
						OFFSET 3.145500 -8.631000 16.059900
						CHANNELS 3 Xrotation Yrotation Zrotation
						End Site
						{
							OFFSET 0.000000 18.501587 0.000000
						}
					}
				}
			}
			JOINT Left_ShortSleeve
			{
				OFFSET 0.265923 -10.480953 1.153800
				CHANNELS 3 Xrotation Yrotation Zrotation
				End Site
				{
					OFFSET 1.725763 19.823879 0.000000
				}
			}
		}
		JOINT RightUpLeg
		{
			OFFSET -6.797100 -2.508499 -1.318700
			CHANNELS 3 Xrotation Yrotation Zrotation
			JOINT RightLeg
			{
				OFFSET -0.082453 -29.241932 0.688000
				CHANNELS 3 Xrotation Yrotation Zrotation
				JOINT RightFoot
				{
					OFFSET 0.082453 -29.568058 -0.264600
					CHANNELS 3 Xrotation Yrotation Zrotation
					JOINT RightToeBase
					{
						OFFSET -3.115300 -8.682800 16.113400
						CHANNELS 3 Xrotation Yrotation Zrotation
						End Site
						{
							OFFSET 0.000000 18.567114 0.000000
						}
					}
				}
			}
			JOINT Right_ShortSleeve
			{
				OFFSET -0.265923 -10.480953 1.153800
				CHANNELS 3 Xrotation Yrotation Zrotation
				End Site
				{
					OFFSET -1.725766 19.823910 0.000000
				}
			}
		}
	}
	JOINT Spine
	{
		OFFSET 0.000000 13.368103 0.470500
		CHANNELS 3 Xrotation Yrotation Zrotation
		JOINT Spine1
		{
			OFFSET 0.147000 13.837402 0.538800
			CHANNELS 3 Xrotation Yrotation Zrotation
			JOINT Spine2
			{
				OFFSET 0.168000 16.242897 -1.435500
				CHANNELS 3 Xrotation Yrotation Zrotation
				JOINT Neck
				{
					OFFSET 0.217200 18.631500 -1.679100
					CHANNELS 3 Xrotation Yrotation Zrotation
					JOINT Head
					{
						OFFSET 0.000000 6.599396 1.385900
						CHANNELS 3 Xrotation Yrotation Zrotation
						JOINT Hat
						{
							OFFSET -0.532200 27.220596 -10.096100
							CHANNELS 3 Xrotation Yrotation Zrotation
							End Site
							{
								OFFSET 0.000000 22.029861 0.000000
							}
						}
						JOINT HairD
						{
							OFFSET -10.777400 17.437393 -1.325900
							CHANNELS 3 Xrotation Yrotation Zrotation
							JOINT HairD1
							{
								OFFSET -3.290299 -11.051193 1.062200
								CHANNELS 3 Xrotation Yrotation Zrotation
								End Site
								{
									OFFSET 0.000000 11.579437 0.000000
								}
							}
						}
						JOINT HairB
						{
							OFFSET -10.777400 17.437393 1.467900
							CHANNELS 3 Xrotation Yrotation Zrotation
							JOINT HairB1
							{
								OFFSET -1.561200 -12.956299 3.590200
								CHANNELS 3 Xrotation Yrotation Zrotation
								End Site
								{
									OFFSET 0.000000 13.534866 0.000000
								}
							}
						}
						JOINT HairA
						{
							OFFSET 9.713100 17.437393 1.467900
							CHANNELS 3 Xrotation Yrotation Zrotation
							JOINT HairA1
							{
								OFFSET 1.561200 -12.956299 3.590200
								CHANNELS 3 Xrotation Yrotation Zrotation
								End Site
								{
									OFFSET 0.000000 13.534866 0.000000
								}
							}
						}
						JOINT HairC
						{
							OFFSET 9.713100 17.437393 -1.325900
							CHANNELS 3 Xrotation Yrotation Zrotation
							JOINT HairC1
							{
								OFFSET 3.290300 -11.051193 1.062200
								CHANNELS 3 Xrotation Yrotation Zrotation
								End Site
								{
									OFFSET 0.000000 11.579437 0.000000
								}
							}
						}
					}
				}
				JOINT LeftShoulder
				{
					OFFSET 5.101800 15.108002 -2.763700
					CHANNELS 3 Xrotation Yrotation Zrotation
					JOINT LeftArm
					{
						OFFSET 9.825497 2.506317 -1.597400
						CHANNELS 3 Xrotation Yrotation Zrotation
						JOINT LeftForeArm
						{
							OFFSET 21.966244 0.000000 0.000000
							CHANNELS 3 Xrotation Yrotation Zrotation
							JOINT LeftHand
							{
								OFFSET 33.879036 0.000000 0.000000
								CHANNELS 3 Xrotation Yrotation Zrotation
								JOINT LeftHandThumb1
								{
									OFFSET 6.715286 -2.359680 3.363841
									CHANNELS 3 Xrotation Yrotation Zrotation
									JOINT LeftHandThumb2
									{
										OFFSET 2.507072 -1.447464 1.447461
										CHANNELS 3 Xrotation Yrotation Zrotation
										JOINT LeftHandThumb3
										{
											OFFSET 2.898338 -1.673355 1.673357
											CHANNELS 3 Xrotation Yrotation Zrotation
											End Site
											{
												OFFSET -0.295959 3.727692 -0.131651
											}
										}
									}
								}
								JOINT LeftHandIndex1
								{
									OFFSET 14.190811 -0.254547 3.840278
									CHANNELS 3 Xrotation Yrotation Zrotation
									JOINT LeftHandIndex2
									{
										OFFSET 3.551727 0.000000 -0.000000
										CHANNELS 3 Xrotation Yrotation Zrotation
										JOINT LeftHandIndex3
										{
											OFFSET 2.894196 0.000000 0.000000
											CHANNELS 3 Xrotation Yrotation Zrotation
											End Site
											{
												OFFSET -1.000603 2.690872 0.366626
											}
										}
									}
								}
								JOINT LeftHandMiddle1
								{
									OFFSET 13.776489 0.000000 0.000000
									CHANNELS 3 Xrotation Yrotation Zrotation
									JOINT LeftHandMiddle2
									{
										OFFSET 3.438232 0.000000 0.000000
										CHANNELS 3 Xrotation Yrotation Zrotation
										JOINT LeftHandMiddle3
										{
											OFFSET 3.691551 0.000000 0.000000
											CHANNELS 3 Xrotation Yrotation Zrotation
											End Site
											{
												OFFSET -1.082298 3.499527 0.457670
											}
										}
									}
								}
								JOINT LeftHandRing1
								{
									OFFSET 13.966164 -0.268127 -3.067488
									CHANNELS 3 Xrotation Yrotation Zrotation
									JOINT LeftHandRing2
									{
										OFFSET 3.162567 0.000000 0.000000
										CHANNELS 3 Xrotation Yrotation Zrotation
										JOINT LeftHandRing3
										{
											OFFSET 3.324348 0.000000 0.000000
											CHANNELS 3 Xrotation Yrotation Zrotation
											End Site
											{
												OFFSET -0.861900 3.184998 0.405154
											}
										}
									}
								}
								JOINT LeftHandPinky1
								{
									OFFSET 13.131393 -0.168503 -5.746925
									CHANNELS 3 Xrotation Yrotation Zrotation
									JOINT LeftHandPinky2
									{
										OFFSET 2.849182 0.000000 0.000000
										CHANNELS 3 Xrotation Yrotation Zrotation
										JOINT LeftHandPinky3
										{
											OFFSET 2.805038 0.000000 0.000000
											CHANNELS 3 Xrotation Yrotation Zrotation
											End Site
											{
												OFFSET -0.882500 2.642609 0.325652
											}
										}
									}
								}
							}
							JOINT Left_Sleeve
							{
								OFFSET 6.592125 -0.646545 0.805568
								CHANNELS 3 Xrotation Yrotation Zrotation
								End Site
								{
									OFFSET -0.000179 20.275787 -0.000000
								}
							}
						}
					}
				}
				JOINT RightShoulder
				{
					OFFSET -5.731700 15.108002 -2.763700
					CHANNELS 3 Xrotation Yrotation Zrotation
					JOINT RightArm
					{
						OFFSET -9.825497 2.506317 -1.597400
						CHANNELS 3 Xrotation Yrotation Zrotation
						JOINT RightForeArm
						{
							OFFSET -21.966242 0.000000 0.000000
							CHANNELS 3 Xrotation Yrotation Zrotation
							JOINT RightHand
							{
								OFFSET -33.879032 0.000000 0.000000
								CHANNELS 3 Xrotation Yrotation Zrotation
								JOINT RightHandThumb1
								{
									OFFSET -6.715286 -2.359680 3.363841
									CHANNELS 3 Xrotation Yrotation Zrotation
									JOINT RightHandThumb2
									{
										OFFSET -2.507072 -1.447464 1.447461
										CHANNELS 3 Xrotation Yrotation Zrotation
										JOINT RightHandThumb3
										{
											OFFSET -2.898338 -1.673355 1.673357
											CHANNELS 3 Xrotation Yrotation Zrotation
											End Site
											{
												OFFSET 0.295959 3.727692 -0.131651
											}
										}
									}
								}
								JOINT RightHandIndex1
								{
									OFFSET -14.190811 -0.254547 3.840278
									CHANNELS 3 Xrotation Yrotation Zrotation
									JOINT RightHandIndex2
									{
										OFFSET -3.551727 0.000000 -0.000000
										CHANNELS 3 Xrotation Yrotation Zrotation
										JOINT RightHandIndex3
										{
											OFFSET -2.894196 0.000000 0.000000
											CHANNELS 3 Xrotation Yrotation Zrotation
											End Site
											{
												OFFSET 1.000603 2.690872 0.366626
											}
										}
									}
								}
								JOINT RightHandMiddle1
								{
									OFFSET -13.776489 0.000000 0.000000
									CHANNELS 3 Xrotation Yrotation Zrotation
									JOINT RightHandMiddle2
									{
										OFFSET -3.438232 0.000000 0.000000
										CHANNELS 3 Xrotation Yrotation Zrotation
										JOINT RightHandMiddle3
										{
											OFFSET -3.691551 0.000000 0.000000
											CHANNELS 3 Xrotation Yrotation Zrotation
											End Site
											{
												OFFSET 1.082298 3.499527 0.457670
											}
										}
									}
								}
								JOINT RightHandRing1
								{
									OFFSET -13.966164 -0.268127 -3.067488
									CHANNELS 3 Xrotation Yrotation Zrotation
									JOINT RightHandRing2
									{
										OFFSET -3.162567 0.000000 0.000000
										CHANNELS 3 Xrotation Yrotation Zrotation
										JOINT RightHandRing3
										{
											OFFSET -3.324348 0.000000 0.000000
											CHANNELS 3 Xrotation Yrotation Zrotation
											End Site
											{
												OFFSET 0.861900 3.184998 0.405154
											}
										}
									}
								}
								JOINT RightHandPinky1
								{
									OFFSET -13.131393 -0.168503 -5.746925
									CHANNELS 3 Xrotation Yrotation Zrotation
									JOINT RightHandPinky2
									{
										OFFSET -2.849182 0.000000 0.000000
										CHANNELS 3 Xrotation Yrotation Zrotation
										JOINT RightHandPinky3
										{
											OFFSET -2.805038 0.000000 0.000000
											CHANNELS 3 Xrotation Yrotation Zrotation
											End Site
											{
												OFFSET 0.882500 2.642609 0.325652
											}
										}
									}
								}
							}
							JOINT Right_Sleeve
							{
								OFFSET -6.592125 -0.646545 0.805568
								CHANNELS 3 Xrotation Yrotation Zrotation
								End Site
								{
									OFFSET 0.000179 20.275787 -0.000000
								}
							}
						}
					}
				}
				JOINT Bind_Right_JacketString
				{
					OFFSET -3.534800 11.969597 7.200700
					CHANNELS 3 Xrotation Yrotation Zrotation
					JOINT Bind_Right_JacketString1
					{
						OFFSET -0.319900 -6.102600 2.794100
						CHANNELS 3 Xrotation Yrotation Zrotation
						End Site
						{
							OFFSET 0.000000 6.719452 0.000000
						}
					}
				}
				JOINT Bind_Left_JacketString
				{
					OFFSET 2.904800 11.969597 7.200700
					CHANNELS 3 Xrotation Yrotation Zrotation
					JOINT Bind_Left_JacketString1
					{
						OFFSET 0.364800 -5.904503 3.186800
						CHANNELS 3 Xrotation Yrotation Zrotation
						End Site
						{
							OFFSET 0.000000 6.719513 0.000000
						}
					}
				}
				JOINT HairE
				{
					OFFSET 5.915200 17.612701 -11.592200
					CHANNELS 3 Xrotation Yrotation Zrotation
					JOINT HairE1
					{
						OFFSET 0.289200 -7.171898 -1.284500
						CHANNELS 3 Xrotation Yrotation Zrotation
						End Site
						{
							OFFSET 0.000000 7.291756 0.000000
						}
					}
				}
				JOINT HairF
				{
					OFFSET -0.864800 17.612701 -11.592200
					CHANNELS 3 Xrotation Yrotation Zrotation
					JOINT HairF1
					{
						OFFSET 0.000000 -14.087097 -2.127501
						CHANNELS 3 Xrotation Yrotation Zrotation
						End Site
						{
							OFFSET 0.000000 14.246841 0.000000
						}
					}
				}
				JOINT HairG
				{
					OFFSET -8.087700 17.612701 -11.592200
					CHANNELS 3 Xrotation Yrotation Zrotation
					JOINT HairG1
					{
						OFFSET -0.293600 -6.081398 -0.910100
						CHANNELS 3 Xrotation Yrotation Zrotation
						End Site
						{
							OFFSET 0.000000 6.156120 0.000000
						}
					}
				}
			}
		}
	}
	JOINT Pouch
	{
		OFFSET 0.000000 4.394501 10.847300
		CHANNELS 3 Xrotation Yrotation Zrotation
		End Site
		{
			OFFSET 0.000000 21.880577 0.000000
		}
	}
	JOINT Bag
	{
		OFFSET -13.229000 4.813004 -0.593300
		CHANNELS 3 Xrotation Yrotation Zrotation
		End Site
		{
			OFFSET 0.000000 21.880577 0.000000
		}
	}
	JOINT OccupyGuyFacialAnim_Joint
	{
		OFFSET 1.000000 -70.206398 -1.655000
		CHANNELS 3 Xrotation Yrotation Zrotation
		End Site
		{
			OFFSET 0.000000 21.880577 0.000000
		}
	}
}
MOTION
Frames: 4
Frame Time: 0.016667
0.957347 64.726227 -5.650291 4.971891 -63.944607 6.606347 -0.000000 0.000001 -0.000000 -45.623239 13.163693 31.665730 62.442054 6.232468 2.123080 -2.636443 3.840781 -12.598390 0.000001 -0.000001 0.000001 -0.000000 0.000002 -0.000000 -33.394735 -19.759707 -30.076967 44.579613 6.211119 -0.458386 -17.012138 1.335909 13.001922 -0.000000 0.000000 -0.000000 0.000001 0.000000 0.000000 6.021646 -0.267551 -10.327461 2.022905 1.037168 -3.225558 1.954054 1.061965 -3.259244 -0.427854 1.561209 3.150428 -6.501613 52.691146 -2.930372 0.000000 -0.000000 -0.000000 0.000000 -0.000000 -0.000000 0.000000 -0.000000 0.000000 0.000000 -0.000000 0.000000 0.000000 -0.000000 0.000000 0.000000 -0.000000 0.000000 0.000000 -0.000000 0.000000 0.000000 -0.000000 -0.000000 0.000000 -0.000000 -0.000000 8.323264 13.077826 -7.024607 9.541081 6.100875 -50.685635 -17.718194 -52.472597 -11.271229 -68.344321 2.082865 12.151065 40.109903 -15.297170 -0.360563 5.639864 28.097957 11.338771 -0.000000 -0.000001 0.000001 6.882206 2.840075 -61.140513 8.247949 7.640044 -89.897837 0.000001 0.000002 0.000005 -2.345568 4.688893 -62.655313 8.754111 9.897139 -87.051287 0.000002 0.000000 0.000002 -9.042528 10.045718 -60.766246 8.524051 9.508858 -66.892988 -0.000002 -0.000000 -0.000002 -17.946962 14.755053 -51.485891 8.868415 8.667030 -84.812016 -0.000000 0.000000 0.000001 -0.000003 0.000002 0.000001 -1.250377 0.958172 0.166081 14.011442 15.962886 54.635916 -3.654936 37.198737 3.123706 -40.713863 8.548941 -33.022257 -1.061795 -5.152521 8.081559 1.452038 -24.614576 -6.362825 -0.000000 0.000000 0.000001 0.188946 0.143011 1.399189 -0.095004 -0.785870 10.671231 0.000001 0.000000 0.000004 0.348247 -5.918435 2.583757 1.609645 -4.842097 28.629266 -0.000001 0.000002 0.000001 0.965514 -11.985687 1.668198 1.794824 -3.771885 26.865465 -0.000000 0.000001 -0.000000 2.078724 -19.147954 10.710186 3.052584 -1.679775 16.780183 0.000000 -0.000000 0.000004 0.000003 -0.000000 0.000001 0.000000 0.000001 0.000001 0.000000 -0.000003 0.000002 0.000000 0.000001 0.000000 0.000000 0.000001 0.000000 0.000000 0.000001 0.000001 0.000000 -0.000003 0.000002 0.000000 0.000001 0.000000 0.000000 0.000001 0.000000 0.000000 0.000001 0.000001 0.000000 -0.000003 0.000002 -0.000000 0.000001 -0.000000 -0.000000 0.000001 -0.000000 -0.000000 0.000001 -0.000000 
0.809231 64.422676 -5.483936 4.588744 -66.143279 6.261867 0.000000 0.000000 -0.000000 -42.979334 11.259178 30.662434 60.355909 4.230235 1.972919 -6.771726 3.022783 -12.743542 0.000001 -0.000000 -0.000001 -0.000003 -0.000002 -0.000001 -33.468514 -17.954016 -29.354213 45.866045 6.570691 -0.667764 -17.556509 1.431449 13.058080 -0.000000 -0.000000 0.000000 0.000000 -0.000001 -0.000000 6.570352 0.170331 -10.469328 2.213358 1.252831 -3.503126 2.134166 1.287657 -3.544557 -0.726364 1.472297 3.093044 -7.529534 54.155866 -2.182889 -0.000001 0.000000 0.000000 -0.000001 0.000000 0.000000 -0.000001 0.000000 0.000000 -0.000001 0.000000 0.000000 -0.000001 0.000000 -0.000000 -0.000001 0.000000 0.000000 -0.000001 0.000000 -0.000000 -0.000001 0.000000 0.000000 -0.000001 0.000000 0.000000 7.748753 12.716427 -7.899212 3.768028 9.179795 -48.813846 -14.713860 -50.244518 -8.593145 -62.145282 -0.745704 11.047868 40.109903 -15.297170 -0.360556 5.639847 28.097926 11.338779 -0.000000 0.000003 0.000002 6.882184 2.840074 -61.140486 8.247971 7.640087 -89.897809 -0.000000 -0.000002 0.000005 -2.345584 4.688888 -62.655251 8.754095 9.897164 -87.051239 0.000002 0.000000 -0.000001 -9.042504 10.045728 -60.766253 8.524043 9.508832 -66.892947 -0.000002 0.000000 0.000000 -17.946962 14.755025 -51.485904 8.868426 8.667046 -84.812003 -0.000000 0.000001 -0.000001 -0.000004 0.000000 -0.000001 -1.130648 1.067001 0.184876 14.688265 15.673578 54.960022 -0.682711 33.923446 1.183343 -47.488782 7.229294 -35.346171 -1.746950 -5.633433 9.467143 1.769596 -24.313733 -7.223181 0.000000 0.000000 0.000002 0.055236 0.373329 0.873922 -0.045540 -0.390802 7.572039 0.000001 -0.000001 -0.000002 0.374750 -5.832937 1.407351 1.498667 -4.485145 26.058299 -0.000001 0.000006 -0.000002 1.026388 -11.929865 2.279485 1.646402 -3.560619 25.559930 -0.000001 -0.000002 -0.000002 2.327902 -19.238775 13.973361 3.124605 -1.790137 17.283082 -0.000001 0.000003 -0.000003 0.000000 0.000002 0.000000 0.000000 -0.000002 -0.000000 0.000002 -0.000002 -0.000000 0.000000 -0.000002 -0.000001 0.000000 -0.000002 -0.000001 0.000000 -0.000002 -0.000000 0.000002 -0.000002 -0.000000 0.000000 -0.000002 -0.000001 0.000000 -0.000002 -0.000001 0.000000 -0.000002 -0.000000 0.000002 -0.000002 -0.000000 0.000000 0.000000 -0.000000 0.000000 0.000000 -0.000000 0.000000 0.000000 -0.000000 
0.709299 64.139549 -5.203092 4.497949 -67.990237 6.242122 0.000000 -0.000000 -0.000000 -41.052425 10.633205 30.280424 57.896187 2.763335 1.856341 -9.965366 0.974964 -11.868489 0.000000 0.000000 0.000001 -0.000000 0.000001 -0.000001 -33.542157 -16.141567 -28.762538 46.871022 6.708577 -0.893825 -17.955188 1.406274 13.362371 -0.000000 -0.000000 0.000000 -0.000001 0.000000 -0.000000 7.429445 0.347377 -10.375454 2.596586 1.518466 -3.801018 2.492149 1.563028 -3.857252 -0.932588 1.253287 2.928707 -9.210480 55.518117 -1.362793 0.000001 -0.000000 -0.000000 0.000001 -0.000000 -0.000000 0.000001 -0.000000 -0.000000 0.000001 -0.000000 -0.000000 0.000001 -0.000000 -0.000000 0.000001 -0.000000 -0.000000 0.000001 -0.000000 -0.000000 0.000001 -0.000000 -0.000000 0.000001 -0.000000 -0.000000 7.224905 11.907285 -8.568571 -2.264323 11.705500 -47.207566 -12.391283 -47.836343 -6.593951 -56.577196 -1.497025 9.008515 40.109944 -15.297153 -0.360511 5.639849 28.097925 11.338786 0.000001 0.000001 -0.000001 6.882225 2.840049 -61.140479 8.247931 7.640040 -89.897857 0.000001 -0.000002 -0.000000 -2.345560 4.688856 -62.655245 8.754078 9.897170 -87.051301 0.000002 0.000003 -0.000002 -9.042532 10.045732 -60.766260 8.524097 9.508852 -66.892988 -0.000001 -0.000001 -0.000003 -17.946964 14.755051 -51.485901 8.868420 8.667040 -84.811982 -0.000003 0.000000 -0.000001 0.000001 -0.000001 0.000003 -1.065466 1.265493 0.198263 14.656631 14.472737 55.165990 -4.528756 30.845937 3.374026 -47.603973 6.503123 -36.543329 -2.346147 -6.100549 10.731421 2.076116 -24.043441 -8.030811 -0.000000 -0.000001 0.000002 -0.054794 0.532049 0.738694 0.019783 -0.087315 5.078597 -0.000000 -0.000001 0.000005 0.381854 -5.810097 1.088489 1.432689 -4.204235 24.052144 -0.000000 -0.000001 -0.000001 1.176591 -11.785470 3.841126 1.607177 -3.502561 25.206248 0.000002 0.000000 -0.000000 2.615602 -19.318256 17.991227 3.315371 -2.067366 18.569823 0.000001 0.000001 0.000002 0.000003 -0.000001 0.000000 -0.000001 -0.000001 0.000001 -0.000001 0.000000 -0.000001 -0.000001 -0.000001 0.000001 -0.000001 -0.000001 0.000001 -0.000001 -0.000001 0.000001 -0.000001 0.000000 -0.000000 -0.000001 -0.000001 0.000001 -0.000001 -0.000001 0.000001 -0.000001 -0.000001 0.000001 -0.000001 0.000000 -0.000000 0.000000 -0.000000 -0.000000 0.000000 -0.000000 -0.000000 0.000000 -0.000000 -0.000000 
0.696484 63.855812 -4.805272 4.583652 -69.044183 6.366029 0.000000 0.000000 0.000000 -39.701287 10.398749 29.918834 55.633749 -0.564131 1.585271 -13.379877 -0.557536 -10.408460 0.000000 -0.000002 -0.000000 0.000002 -0.000001 0.000000 -33.535635 -14.526709 -28.380249 47.656644 6.479663 -1.146821 -18.272231 1.152674 14.002881 -0.000000 -0.000000 -0.000000 0.000000 -0.000001 0.000003 8.346145 -0.014297 -10.183208 3.018321 1.678067 -4.067148 2.881013 1.725166 -4.151142 -0.981798 1.071889 2.832517 -11.175556 56.782306 -0.649289 0.000000 0.000000 0.000000 0.000000 0.000000 0.000000 0.000000 0.000000 0.000000 0.000000 0.000000 0.000000 0.000000 -0.000000 -0.000000 0.000000 0.000000 0.000000 0.000000 -0.000000 -0.000000 0.000000 0.000000 0.000000 0.000000 0.000000 0.000000 6.677907 10.753163 -8.549237 -8.021127 14.587824 -46.182700 -13.712490 -45.464656 -7.520434 -48.869942 -1.339826 7.345888 40.109924 -15.297194 -0.360571 5.639836 28.097959 11.338842 0.000003 0.000001 0.000001 6.882206 2.840028 -61.140500 8.247971 7.640086 -89.897857 -0.000002 -0.000003 0.000001 -2.345539 4.688836 -62.655265 8.754068 9.897134 -87.051287 0.000002 0.000003 -0.000001 -9.042525 10.045676 -60.766219 8.524069 9.508871 -66.892940 0.000000 -0.000000 -0.000000 -17.946979 14.755031 -51.485877 8.868445 8.667073 -84.811962 -0.000003 -0.000000 -0.000002 0.000004 -0.000001 0.000002 -0.941224 1.430438 0.218049 14.222958 13.758795 55.030107 -5.122348 28.405602 3.551392 -49.977761 5.601611 -36.818241 -2.731575 -6.426723 11.574428 2.364101 -23.806187 -8.771050 -0.000000 0.000000 -0.000001 -0.124221 0.615514 0.793043 0.070679 0.090714 3.555004 -0.000000 -0.000002 -0.000000 0.372801 -5.839096 1.492312 1.402476 -4.036300 22.855976 -0.000001 -0.000001 0.000003 1.383450 -11.568629 6.136998 1.656961 -3.576029 25.654138 0.000000 -0.000000 0.000001 2.906247 -19.368591 22.456803 3.612579 -2.462289 20.466635 0.000000 -0.000000 -0.000001 0.000002 0.000001 0.000000 -0.000000 -0.000000 0.000002 0.000000 -0.000002 0.000002 -0.000000 -0.000000 0.000001 -0.000000 -0.000000 0.000001 -0.000000 -0.000000 0.000002 0.000000 -0.000002 0.000002 -0.000000 -0.000000 0.000001 -0.000000 -0.000000 0.000001 -0.000000 -0.000000 0.000002 0.000000 -0.000002 0.000002 0.000000 0.000000 0.000000 0.000000 0.000000 0.000000 0.000000 0.000000 0.000000 
